<?xml version="1.0" encoding="UTF-8" standalone="no"?>
<svg
   xmlns:dc="http://purl.org/dc/elements/1.1/"
   xmlns:cc="http://creativecommons.org/ns#"
   xmlns:rdf="http://www.w3.org/1999/02/22-rdf-syntax-ns#"
   xmlns:svg="http://www.w3.org/2000/svg"
   xmlns="http://www.w3.org/2000/svg"
   xmlns:sodipodi="http://sodipodi.sourceforge.net/DTD/sodipodi-0.dtd"
   xmlns:inkscape="http://www.inkscape.org/namespaces/inkscape"
   width="48px"
   height="48px"
   viewBox="0 0 48 48"
   version="1.1"
   id="svg15"
   sodipodi:docname="arrow-in.svg"
   inkscape:version="1.0.1 (3bc2e813f5, 2020-09-07)">
  <metadata
     id="metadata19">
    <rdf:RDF>
      <cc:Work
         rdf:about="">
        <dc:format>image/svg+xml</dc:format>
        <dc:type
           rdf:resource="http://purl.org/dc/dcmitype/StillImage" />
        <dc:title>package-updated-succeed</dc:title>
      </cc:Work>
    </rdf:RDF>
  </metadata>
  <sodipodi:namedview
     pagecolor="#ffffff"
     bordercolor="#666666"
     borderopacity="1"
     objecttolerance="10"
     gridtolerance="10"
     guidetolerance="10"
     inkscape:pageopacity="0"
     inkscape:pageshadow="2"
     inkscape:window-width="1920"
     inkscape:window-height="940"
     id="namedview17"
     showgrid="false"
     inkscape:zoom="15.9375"
     inkscape:cx="24.188235"
     inkscape:cy="24"
     inkscape:window-x="0"
     inkscape:window-y="0"
     inkscape:window-maximized="1"
     inkscape:current-layer="svg15"
     inkscape:document-rotation="0" />
  <!-- Generator: Sketch 41.2 (35397) - http://www.bohemiancoding.com/sketch -->
  <title
     id="title2">package-updated-succeed</title>
  <desc
     id="desc4">Created with Sketch.</desc>
  <defs
     id="defs6" />
  <g
     id="g21">
    <path
       d="M 29.832871,4.8748587 C 40.394924,8.096032 46.346262,19.271168 43.125161,29.83346 39.90406,40.395752 28.72918,46.346226 18.167128,43.125053 7.605077,39.903878 1.653738,28.729743 4.874839,18.167451 8.09594,7.6051577 19.27082,1.6536843 29.832871,4.8748587"
       id="Fill-2"
       fill="#28ba00"
       style="fill-rule:evenodd;stroke:none;stroke-width:0.952381" />
    <g
       id="g14"
       transform="matrix(0,0.99831699,-1.0515402,0,49.758677,0.01519638)">
      <g
         id="g12">
        <path
           style="fill:#ffffff"
           d="m 14.569,24.003 5.428,0.003 V 33 c 0,0.552 0.513,1.006 1.066,1.006 h 6 c 0.552,0 0.934,-0.454 0.934,-1.006 v -8.994 l 5.478,-0.003 c 0.501,0 0.757,-0.546 0.402,-0.901 l -9.489,-9.86 c -0.22,-0.22 -0.575,-0.205 -0.794,0.015 l -9.419,9.837 c -0.354,0.355 -0.107,0.909 0.394,0.909 z"
           id="path10" />
      </g>
    </g>
  </g>
</svg>
