<?xml version="1.0" encoding="UTF-8" standalone="no"?>
<svg
   xmlns:dc="http://purl.org/dc/elements/1.1/"
   xmlns:cc="http://creativecommons.org/ns#"
   xmlns:rdf="http://www.w3.org/1999/02/22-rdf-syntax-ns#"
   xmlns:svg="http://www.w3.org/2000/svg"
   xmlns="http://www.w3.org/2000/svg"
   xmlns:sodipodi="http://sodipodi.sourceforge.net/DTD/sodipodi-0.dtd"
   xmlns:inkscape="http://www.inkscape.org/namespaces/inkscape"
   width="32"
   height="32"
   viewBox="0 0 32 32"
   version="1.1"
   id="svg13"
   sodipodi:docname="audio-output-start.svg"
   inkscape:version="1.0.1 (3bc2e813f5, 2020-09-07)">
  <metadata
     id="metadata17">
    <rdf:RDF>
      <cc:Work
         rdf:about="">
        <dc:format>image/svg+xml</dc:format>
        <dc:type
           rdf:resource="http://purl.org/dc/dcmitype/StillImage" />
        <dc:title>dialog-ok</dc:title>
      </cc:Work>
    </rdf:RDF>
  </metadata>
  <sodipodi:namedview
     pagecolor="#ffffff"
     bordercolor="#666666"
     borderopacity="1"
     objecttolerance="10"
     gridtolerance="10"
     guidetolerance="10"
     inkscape:pageopacity="0"
     inkscape:pageshadow="2"
     inkscape:window-width="1920"
     inkscape:window-height="939"
     id="namedview15"
     showgrid="false"
     inkscape:zoom="23.875"
     inkscape:cx="16.675319"
     inkscape:cy="17.011364"
     inkscape:window-x="0"
     inkscape:window-y="0"
     inkscape:window-maximized="1"
     inkscape:current-layer="svg13"
     inkscape:document-rotation="0" />
  <!-- Generator: Sketch 41.2 (35397) - http://www.bohemiancoding.com/sketch -->
  <title
     id="title2">dialog-ok</title>
  <desc
     id="desc4">Created with Sketch.</desc>
  <defs
     id="defs6" />
  <g
     id="g84">
    <circle
       id="Oval"
       fill="#7ed321"
       cx="16"
       cy="16"
       r="14"
       style="fill-rule:evenodd;stroke:none;stroke-width:0.5" />
    <path
       fill="#ffffff"
       fill-rule="evenodd"
       d="m 24.5,8.5 c 0.276142,0 0.5,0.2218609 0.5,0.4955401 V 23.00446 C 25,23.27814 24.776142,23.5 24.5,23.5 24.223858,23.5 24,23.27814 24,23.00446 V 8.9955401 C 24,8.7218609 24.223858,8.5 24.5,8.5 Z M 16,10.52775 v 10.901884 c 0,0.441479 -0.538571,0.662572 -0.853553,0.3504 l -1.974874,-1.957259 c -0.562609,-0.55759 -1.325671,-0.870842 -2.12132,-0.870842 H 9 c -1.1045695,0 -2,-0.887443 -2,-1.982161 v -1.98216 c 0,-1.094717 0.8954305,-1.982161 2,-1.982161 h 2.050253 c 0.795649,0 1.558711,-0.313251 2.12132,-0.870842 L 15.146447,10.17735 C 15.461429,9.8651776 16,10.086271 16,10.52775 Z m 5.5,-0.201189 c 0.276142,0 0.5,0.221861 0.5,0.49554 v 10.355798 c 0,0.27368 -0.223858,0.49554 -0.5,0.49554 -0.276142,0 -0.5,-0.22186 -0.5,-0.49554 V 10.822101 c 0,-0.273679 0.223858,-0.49554 0.5,-0.49554 z m -2.986,1.804757 c 0.276142,0 0.5,0.221861 0.5,0.49554 v 6.703667 c 0,0.27368 -0.223858,0.495541 -0.5,0.495541 -0.276142,0 -0.5,-0.221861 -0.5,-0.495541 v -6.703667 c 0,-0.273679 0.223858,-0.49554 0.5,-0.49554 z"
       id="path9"
       style="stroke-width:0.99553" />
  </g>
</svg>
