<?xml version="1.0" encoding="UTF-8" standalone="no"?>
<svg
   xmlns:dc="http://purl.org/dc/elements/1.1/"
   xmlns:cc="http://creativecommons.org/ns#"
   xmlns:rdf="http://www.w3.org/1999/02/22-rdf-syntax-ns#"
   xmlns:svg="http://www.w3.org/2000/svg"
   xmlns="http://www.w3.org/2000/svg"
   xmlns:sodipodi="http://sodipodi.sourceforge.net/DTD/sodipodi-0.dtd"
   xmlns:inkscape="http://www.inkscape.org/namespaces/inkscape"
   width="20"
   height="20"
   version="1"
   id="svg20"
   sodipodi:docname="camera-start(副本).svg"
   inkscape:version="1.0.1 (3bc2e813f5, 2020-09-07)">
  <metadata
     id="metadata26">
    <rdf:RDF>
      <cc:Work
         rdf:about="">
        <dc:format>image/svg+xml</dc:format>
        <dc:type
           rdf:resource="http://purl.org/dc/dcmitype/StillImage" />
        <dc:title />
      </cc:Work>
    </rdf:RDF>
  </metadata>
  <defs
     id="defs24" />
  <sodipodi:namedview
     pagecolor="#ffffff"
     bordercolor="#666666"
     borderopacity="1"
     objecttolerance="10"
     gridtolerance="10"
     guidetolerance="10"
     inkscape:pageopacity="0"
     inkscape:pageshadow="2"
     inkscape:window-width="1920"
     inkscape:window-height="939"
     id="namedview22"
     showgrid="false"
     inkscape:zoom="33.764349"
     inkscape:cx="11.077108"
     inkscape:cy="7.6598399"
     inkscape:window-x="0"
     inkscape:window-y="0"
     inkscape:window-maximized="1"
     inkscape:current-layer="svg20"
     inkscape:document-rotation="0" />
  <path
     style="fill:#ffffff;fill-opacity:0;stroke-width:1.00003"
     d="m 31.999999,4 c -15.512,0 -27.9999996,12.487999 -27.9999996,27.999999 0,15.512001 12.4879996,28 27.9999996,28 15.512,0 28,-12.487999 28,-28 0,-15.512 -12.488,-27.999999 -28,-27.999999 z"
     id="path4" />
  <g
     id="g26">
    <g
       id="g838"
       transform="matrix(0.33333333,0,0,0.33333333,-0.66666664,-0.66666664)">
      <circle
         style="fill:#ffffff;fill-opacity:1;stroke-width:3"
         cx="32"
         cy="32"
         r="24"
         id="circle18-3" />
      <circle
         style="opacity:0.4;stroke-width:1.00006"
         cx="32"
         cy="32"
         r="18"
         id="circle10" />
      <circle
         style="fill:#000000;fill-opacity:0.362724"
         cx="32"
         cy="-32"
         r="14"
         transform="scale(1,-1)"
         id="circle14" />
      <circle
         style="fill:#ffffff;fill-opacity:1"
         cx="32"
         cy="32"
         r="8"
         id="circle18" />
    </g>
    <path
       d="m 17.627057,15.832984 c 0.495543,0.495588 0.498982,1.295655 -3.6e-5,1.794718 -0.495563,0.495608 -1.297464,0.497173 -1.794557,3.6e-5 L 2.3729438,4.167015 C 1.8774002,3.6714277 1.8739616,2.8713598 2.3729795,2.3722973 2.8685428,1.8766897 3.6704438,1.8751245 4.1675366,2.3722617 Z"
       id="Rectangle"
       fill="#ffffff"
       style="fill-rule:evenodd;stroke:none;stroke-width:0.727311" />
  </g>
</svg>
