<?xml version="1.0" encoding="UTF-8" standalone="no"?>
<svg
   xmlns:dc="http://purl.org/dc/elements/1.1/"
   xmlns:cc="http://creativecommons.org/ns#"
   xmlns:rdf="http://www.w3.org/1999/02/22-rdf-syntax-ns#"
   xmlns:svg="http://www.w3.org/2000/svg"
   xmlns="http://www.w3.org/2000/svg"
   xmlns:sodipodi="http://sodipodi.sourceforge.net/DTD/sodipodi-0.dtd"
   xmlns:inkscape="http://www.inkscape.org/namespaces/inkscape"
   width="32"
   height="32"
   viewBox="0 0 32 32"
   version="1.1"
   id="svg14"
   sodipodi:docname="audio-input-stop.svg"
   inkscape:version="1.0.1 (3bc2e813f5, 2020-09-07)">
  <metadata
     id="metadata18">
    <rdf:RDF>
      <cc:Work
         rdf:about="">
        <dc:format>image/svg+xml</dc:format>
        <dc:type
           rdf:resource="http://purl.org/dc/dcmitype/StillImage" />
        <dc:title>dialog-cancel</dc:title>
      </cc:Work>
    </rdf:RDF>
  </metadata>
  <sodipodi:namedview
     pagecolor="#ffffff"
     bordercolor="#666666"
     borderopacity="1"
     objecttolerance="10"
     gridtolerance="10"
     guidetolerance="10"
     inkscape:pageopacity="0"
     inkscape:pageshadow="2"
     inkscape:window-width="1920"
     inkscape:window-height="939"
     id="namedview16"
     showgrid="false"
     inkscape:zoom="23.875"
     inkscape:cx="15.442128"
     inkscape:cy="14.624652"
     inkscape:window-x="0"
     inkscape:window-y="0"
     inkscape:window-maximized="1"
     inkscape:current-layer="svg14"
     inkscape:document-rotation="0" />
  <!-- Generator: Sketch 41.2 (35397) - http://www.bohemiancoding.com/sketch -->
  <title
     id="title2">dialog-cancel</title>
  <desc
     id="desc4">Created with Sketch.</desc>
  <defs
     id="defs6" />
  <path
     style="fill:#ffffff;fill-opacity:0;stroke-width:1.00003"
     d="m 15.827225,-12.089005 c -15.512,0 -28,12.487999 -28,27.999999 0,15.512001 12.488,28 28,28 15.512,0 28,-12.487999 28,-28 0,-15.512 -12.488,-27.999999 -28,-27.999999 z"
     id="path4" />
  <g
     id="g30">
    <circle
       id="Oval"
       fill="#e04141"
       cx="16"
       cy="16"
       r="14"
       style="fill-rule:evenodd;stroke:none;stroke-width:0.5" />
    <g
       id="g21"
       transform="translate(6,6)">
      <g
         id="g853"
         transform="matrix(0.27777778,0,0,0.31449189,1.1111111,0.11304866)">
        <path
           style="fill:#ffffff;fill-opacity:1;fill-rule:evenodd;stroke-width:0.911798"
           d="m 47.407945,20.875728 c -1.529557,-0.0052 -2.723899,1.499175 -2.56075,3.225503 0,0 0.240466,2.730451 -1.196796,6.306383 -1.437263,3.575932 -4.060825,7.039187 -11.6504,7.039187 -7.589574,0 -10.213135,-3.463255 -11.650398,-7.039187 -1.437262,-3.575932 -1.196799,-6.306383 -1.196799,-6.306383 0.157774,-1.74971 -1.07535,-3.258218 -2.624265,-3.210324 -1.31823,0.04102 -2.394759,1.20888 -2.490543,2.701835 0,0 -0.435368,4.068818 1.641419,9.235897 1.873136,4.660393 6.201178,9.400296 13.753153,10.287458 v 7.930943 h -9.413923 c -1.417955,0 -2.567434,1.304794 -2.567434,2.914338 0,1.609543 1.149479,2.914337 2.567434,2.914337 h 23.962714 c 1.417952,0 2.567433,-1.304794 2.567433,-2.914337 0,-1.609544 -1.149481,-2.914338 -2.567433,-2.914338 h -9.413925 v -7.930943 c 7.551976,-0.887162 11.880017,-5.627065 13.753153,-10.287458 2.076787,-5.167079 1.641421,-9.235897 1.641421,-9.235897 -0.09135,-1.526116 -1.206511,-2.712415 -2.554061,-2.717014 z"
           id="path6" />
        <rect
           width="30"
           height="24"
           x="-36"
           y="-44"
           rx="12.501"
           ry="12"
           transform="matrix(0,-1,-1,0,0,0)"
           style="fill:#ffffff;fill-opacity:1;stroke-width:0.960769"
           id="rect8" />
      </g>
      <path
         d="m 17.627056,15.832984 c 0.495544,0.495588 0.498982,1.295655 -3.5e-5,1.794718 -0.495564,0.495608 -1.297465,0.497173 -1.794558,3.6e-5 L 2.3729438,4.1670149 C 1.8774002,3.6714276 1.8739616,2.8713598 2.3729794,2.3722973 2.8685427,1.8766897 3.6704437,1.8751245 4.1675365,2.3722617 Z"
         id="Rectangle"
         fill="#ffffff"
         style="fill-rule:evenodd;stroke:none;stroke-width:0.727311" />
    </g>
  </g>
</svg>
