<?xml version="1.0" encoding="UTF-8" standalone="no"?>
<svg
   xmlns:dc="http://purl.org/dc/elements/1.1/"
   xmlns:cc="http://creativecommons.org/ns#"
   xmlns:rdf="http://www.w3.org/1999/02/22-rdf-syntax-ns#"
   xmlns:svg="http://www.w3.org/2000/svg"
   xmlns="http://www.w3.org/2000/svg"
   xmlns:sodipodi="http://sodipodi.sourceforge.net/DTD/sodipodi-0.dtd"
   xmlns:inkscape="http://www.inkscape.org/namespaces/inkscape"
   width="32"
   height="32"
   viewBox="0 0 32 32"
   version="1.1"
   id="svg14"
   sodipodi:docname="audio-output-stop.svg"
   inkscape:version="1.0.1 (3bc2e813f5, 2020-09-07)">
  <metadata
     id="metadata18">
    <rdf:RDF>
      <cc:Work
         rdf:about="">
        <dc:format>image/svg+xml</dc:format>
        <dc:type
           rdf:resource="http://purl.org/dc/dcmitype/StillImage" />
        <dc:title>dialog-cancel</dc:title>
      </cc:Work>
    </rdf:RDF>
  </metadata>
  <sodipodi:namedview
     pagecolor="#ffffff"
     bordercolor="#666666"
     borderopacity="1"
     objecttolerance="10"
     gridtolerance="10"
     guidetolerance="10"
     inkscape:pageopacity="0"
     inkscape:pageshadow="2"
     inkscape:window-width="1920"
     inkscape:window-height="939"
     id="namedview16"
     showgrid="false"
     inkscape:zoom="23.875"
     inkscape:cx="15.442128"
     inkscape:cy="14.624652"
     inkscape:window-x="0"
     inkscape:window-y="0"
     inkscape:window-maximized="1"
     inkscape:current-layer="svg14"
     inkscape:document-rotation="0" />
  <!-- Generator: Sketch 41.2 (35397) - http://www.bohemiancoding.com/sketch -->
  <title
     id="title2">dialog-cancel</title>
  <desc
     id="desc4">Created with Sketch.</desc>
  <defs
     id="defs6" />
  <path
     style="fill:#ffffff;fill-opacity:0;stroke-width:1.00003"
     d="m 15.827225,-12.089005 c -15.512,0 -28,12.487999 -28,27.999999 0,15.512001 12.488,28 28,28 15.512,0 28,-12.487999 28,-28 0,-15.512 -12.488,-27.999999 -28,-27.999999 z"
     id="path4" />
  <g
     id="g23">
    <circle
       id="Oval"
       fill="#e04141"
       cx="16"
       cy="16"
       r="14"
       style="fill-rule:evenodd;stroke:none;stroke-width:0.5" />
    <path
       fill="#ffffff"
       fill-rule="evenodd"
       d="m 17.497152,10.500919 v 10.998162 c 0,0.445378 -0.538401,0.668425 -0.853283,0.353494 L 14.66962,19.878032 C 14.107189,19.315517 13.344368,18.999499 12.548971,18.999499 H 10.499367 C 9.3951471,18.999499 8.5,18.104218 8.5,16.999833 v -1.999666 c 0,-1.104385 0.8951471,-1.999666 1.999367,-1.999666 h 2.049604 c 0.795397,0 1.558218,-0.316017 2.120649,-0.878533 l 1.974249,-1.974544 c 0.314882,-0.3149294 0.853283,-0.09188 0.853283,0.353495 z m 5.839364,4.115207 c 0.202968,0.202997 0.219159,0.515928 0.03617,0.69895 l -1.139033,1.138846 1.139028,1.13885 c 0.182995,0.183022 0.166804,0.495953 -0.03617,0.698951 -0.202967,0.202997 -0.51585,0.21919 -0.698846,0.03617 l -1.13878,-1.139098 -1.138571,1.139093 c -0.182994,0.183021 -0.495878,0.166828 -0.698845,-0.03617 -0.202967,-0.202998 -0.219158,-0.515929 -0.03617,-0.698951 l 1.138818,-1.138845 -1.138813,-1.138846 c -0.182994,-0.183022 -0.166803,-0.495953 0.03617,-0.69895 0.202967,-0.202998 0.515851,-0.219191 0.698845,-0.03617 l 1.138571,1.138088 1.138785,-1.138088 c 0.182996,-0.183022 0.495879,-0.166829 0.698846,0.03617 z"
       id="path10"
       style="stroke-width:0.999758" />
  </g>
</svg>
